<svg width="20" height="20" viewBox="0 0 20 20" fill="none" xmlns="http://www.w3.org/2000/svg">
<path d="M0.400002 1.60002C0.400002 0.937283 0.93726 0.400024 1.6 0.400024H4.18345C4.77006 0.400024 5.27068 0.82412 5.36712 1.40275L6.2543 6.72579C6.3409 7.24543 6.07847 7.76079 5.60728 7.99639L3.74951 8.92527C5.08907 12.254 7.74602 14.911 11.0748 16.2505L12.0036 14.3927C12.2392 13.9216 12.7546 13.6591 13.2742 13.7457L18.5973 14.6329C19.1759 14.7293 19.6 15.23 19.6 15.8166V18.4C19.6 19.0628 19.0627 19.6 18.4 19.6H16C7.38436 19.6 0.400002 12.6157 0.400002 4.00002V1.60002Z" fill="white"/>
</svg>
