<svg width="14" height="14" viewBox="0 0 14 14" fill="none" xmlns="http://www.w3.org/2000/svg">
<path d="M7.00002 1.90002C8.65002 1.90002 8.87502 1.90002 9.55002 1.90002C10.15 1.90002 10.45 2.05002 10.675 2.12502C10.975 2.27502 11.2 2.35002 11.425 2.57502C11.65 2.80002 11.8 3.02502 11.875 3.32502C11.95 3.55002 12.025 3.85002 12.1 4.45002C12.1 5.12502 12.1 5.27502 12.1 7.00002C12.1 8.72502 12.1 8.87502 12.1 9.55002C12.1 10.15 11.95 10.45 11.875 10.675C11.725 10.975 11.65 11.2 11.425 11.425C11.2 11.65 10.975 11.8 10.675 11.875C10.45 11.95 10.15 12.025 9.55002 12.1C8.87502 12.1 8.72502 12.1 7.00002 12.1C5.27502 12.1 5.12502 12.1 4.45002 12.1C3.85002 12.1 3.55002 11.95 3.32502 11.875C3.02502 11.725 2.80002 11.65 2.57502 11.425C2.35002 11.2 2.20002 10.975 2.12502 10.675C2.05002 10.45 1.97502 10.15 1.90002 9.55002C1.90002 8.87502 1.90002 8.72502 1.90002 7.00002C1.90002 5.27502 1.90002 5.12502 1.90002 4.45002C1.90002 3.85002 2.05002 3.55002 2.12502 3.32502C2.27502 3.02502 2.35002 2.80002 2.57502 2.57502C2.80002 2.35002 3.02502 2.20002 3.32502 2.12502C3.55002 2.05002 3.85002 1.97502 4.45002 1.90002C5.12502 1.90002 5.35002 1.90002 7.00002 1.90002ZM7.00002 0.775024C5.27502 0.775024 5.12502 0.775024 4.45002 0.775024C3.77502 0.775024 3.32502 0.925025 2.95002 1.07502C2.57502 1.22502 2.20002 1.45002 1.82502 1.82502C1.45002 2.20002 1.30002 2.50002 1.07502 2.95002C0.925025 3.32502 0.850024 3.77502 0.775024 4.45002C0.775024 5.12502 0.775024 5.35002 0.775024 7.00002C0.775024 8.72502 0.775024 8.87502 0.775024 9.55002C0.775024 10.225 0.925025 10.675 1.07502 11.05C1.22502 11.425 1.45002 11.8 1.82502 12.175C2.20002 12.55 2.50002 12.7 2.95002 12.925C3.32502 13.075 3.77502 13.15 4.45002 13.225C5.12502 13.225 5.35002 13.225 7.00002 13.225C8.65002 13.225 8.87502 13.225 9.55002 13.225C10.225 13.225 10.675 13.075 11.05 12.925C11.425 12.775 11.8 12.55 12.175 12.175C12.55 11.8 12.7 11.5 12.925 11.05C13.075 10.675 13.15 10.225 13.225 9.55002C13.225 8.87502 13.225 8.65002 13.225 7.00002C13.225 5.35002 13.225 5.12502 13.225 4.45002C13.225 3.77502 13.075 3.32502 12.925 2.95002C12.775 2.57502 12.55 2.20002 12.175 1.82502C11.8 1.45002 11.5 1.30002 11.05 1.07502C10.675 0.925025 10.225 0.850024 9.55002 0.775024C8.87502 0.775024 8.72502 0.775024 7.00002 0.775024Z" fill="white"/>
<path d="M7.00002 3.77502C5.20002 3.77502 3.77502 5.20002 3.77502 7.00002C3.77502 8.80002 5.20002 10.225 7.00002 10.225C8.80002 10.225 10.225 8.80002 10.225 7.00002C10.225 5.20002 8.80002 3.77502 7.00002 3.77502ZM7.00002 9.10002C5.87502 9.10002 4.90002 8.20002 4.90002 7.00002C4.90002 5.87502 5.80002 4.90002 7.00002 4.90002C8.12502 4.90002 9.10002 5.80002 9.10002 7.00002C9.10002 8.12502 8.12502 9.10002 7.00002 9.10002Z" fill="white"/>
<path d="M10.3 4.45002C10.7142 4.45002 11.05 4.11424 11.05 3.70002C11.05 3.28581 10.7142 2.95002 10.3 2.95002C9.88581 2.95002 9.55002 3.28581 9.55002 3.70002C9.55002 4.11424 9.88581 4.45002 10.3 4.45002Z" fill="white"/>
</svg>
