<svg width="173" height="36" viewBox="0 0 173 36" fill="none" xmlns="http://www.w3.org/2000/svg">
<path d="M15.4225 16.1777C15.4225 7.34118 22.586 0.177735 31.4225 0.177735H35.4225V4.17774C35.4225 13.0143 28.2591 20.1777 19.4225 20.1777H15.4225V16.1777Z" fill="#FFDC00"/>
<path d="M20.4225 19.1777C20.4225 28.0143 13.2591 35.1777 4.42255 35.1777L0.422547 35.1777L0.422547 31.1777C0.422546 22.3412 7.58599 15.1777 16.4225 15.1777L20.4225 15.1777V19.1777Z" fill="#FFDC00"/>
<path d="M16.4225 20.1777C7.58599 20.1777 0.422547 13.0143 0.422547 4.17773L0.422546 0.177735L4.42255 0.177734C13.2591 0.177734 20.4225 7.34118 20.4225 16.1777V20.1777H16.4225Z" fill="#FFDC00"/>
<path d="M19.4225 15.1777C28.2591 15.1777 35.4225 22.3412 35.4225 31.1777V35.1777H31.4225C22.586 35.1777 15.4225 28.0143 15.4225 19.1777L15.4225 15.1777L19.4225 15.1777Z" fill="#FFDC00"/>
<path d="M17.9221 27.772C12.3472 22.1971 12.3472 13.1584 17.9221 7.5835C23.497 13.1584 23.497 22.1971 17.9221 27.772Z" fill="#FFBE00"/>
<path d="M7.82782 17.6777C13.4027 12.1028 22.4414 12.1028 28.0163 17.6777C22.4414 23.2526 13.4027 23.2526 7.82782 17.6777Z" fill="#FFBE00"/>
<mask id="mask0_1501_8346" style="mask-type:alpha" maskUnits="userSpaceOnUse" x="13" y="7" width="10" height="21">
<path d="M17.9221 27.772C12.3472 22.1971 12.3472 13.1584 17.9221 7.5835C23.497 13.1584 23.497 22.1971 17.9221 27.772Z" fill="#FFBE00"/>
</mask>
<g mask="url(#mask0_1501_8346)">
<path d="M7.82782 17.6777C13.4027 12.1028 22.4414 12.1028 28.0163 17.6777C22.4414 23.2526 13.4027 23.2526 7.82782 17.6777Z" fill="#FF8C00"/>
</g>
<path d="M65.7825 7.1772C66.0425 7.1772 66.2425 7.2572 66.3825 7.4172C66.5425 7.5772 66.6225 7.7772 66.6225 8.0172V27.2172C66.6225 27.5172 66.5225 27.7572 66.3225 27.9372C66.1425 28.0972 65.9325 28.1772 65.6925 28.1772C65.5725 28.1772 65.4425 28.1572 65.3025 28.1172C65.1625 28.0572 65.0525 27.9772 64.9725 27.8772L51.5925 9.8472L52.1025 9.5772V27.3672C52.1025 27.5872 52.0225 27.7772 51.8625 27.9372C51.7025 28.0972 51.5025 28.1772 51.2625 28.1772C51.0025 28.1772 50.7925 28.0972 50.6325 27.9372C50.4925 27.7772 50.4225 27.5872 50.4225 27.3672V8.0772C50.4225 7.7772 50.5125 7.5572 50.6925 7.4172C50.8725 7.2572 51.0725 7.1772 51.2925 7.1772C51.4125 7.1772 51.5425 7.2072 51.6825 7.2672C51.8225 7.3072 51.9325 7.3872 52.0125 7.5072L65.2425 25.3272L64.9425 25.8672V8.0172C64.9425 7.7772 65.0225 7.5772 65.1825 7.4172C65.3625 7.2572 65.5625 7.1772 65.7825 7.1772Z" fill="#12475E"/>
<path d="M94.5687 9.4872L87.2787 27.6072C87.1987 27.8072 87.0887 27.9572 86.9487 28.0572C86.8087 28.1572 86.6487 28.2072 86.4687 28.2072C86.1887 28.2072 85.9787 28.1372 85.8387 27.9972C85.6987 27.8372 85.6187 27.6472 85.5987 27.4272C85.5787 27.3272 85.5887 27.2072 85.6287 27.0672L93.5487 7.6872C93.6487 7.4672 93.7687 7.3172 93.9087 7.2372C94.0687 7.1372 94.2487 7.0872 94.4487 7.0872C94.6487 7.0872 94.8187 7.1472 94.9587 7.2672C95.1187 7.3672 95.2387 7.5072 95.3187 7.6872L103.209 26.9772C103.249 27.0972 103.269 27.2172 103.269 27.3372C103.269 27.6172 103.179 27.8372 102.999 27.9972C102.819 28.1372 102.609 28.2072 102.369 28.2072C102.169 28.2072 101.989 28.1572 101.829 28.0572C101.689 27.9372 101.579 27.7872 101.499 27.6072L94.0287 9.3672L94.5687 9.4872ZM89.0187 22.1172L89.7687 20.3472H99.0687L99.4287 22.1172H89.0187Z" fill="#12475E"/>
<path d="M140.846 17.6772C140.846 19.2572 140.596 20.7072 140.096 22.0272C139.616 23.3272 138.926 24.4672 138.026 25.4472C137.126 26.4072 136.056 27.1572 134.816 27.6972C133.596 28.2172 132.256 28.4772 130.796 28.4772C129.336 28.4772 127.986 28.2172 126.746 27.6972C125.526 27.1572 124.466 26.4072 123.566 25.4472C122.666 24.4672 121.966 23.3272 121.466 22.0272C120.986 20.7072 120.746 19.2572 120.746 17.6772C120.746 16.0972 120.986 14.6572 121.466 13.3572C121.966 12.0372 122.666 10.8972 123.566 9.9372C124.466 8.9572 125.526 8.2072 126.746 7.6872C127.986 7.1472 129.336 6.8772 130.796 6.8772C132.256 6.8772 133.596 7.1472 134.816 7.6872C136.056 8.2072 137.126 8.9572 138.026 9.9372C138.926 10.8972 139.616 12.0372 140.096 13.3572C140.596 14.6572 140.846 16.0972 140.846 17.6772ZM138.926 17.6772C138.926 15.8972 138.576 14.3372 137.876 12.9972C137.196 11.6372 136.246 10.5772 135.026 9.8172C133.806 9.0572 132.396 8.6772 130.796 8.6772C129.216 8.6772 127.806 9.0572 126.566 9.8172C125.346 10.5772 124.386 11.6372 123.686 12.9972C123.006 14.3372 122.666 15.8972 122.666 17.6772C122.666 19.4572 123.006 21.0272 123.686 22.3872C124.386 23.7272 125.346 24.7772 126.566 25.5372C127.806 26.2972 129.216 26.6772 130.796 26.6772C132.396 26.6772 133.806 26.2972 135.026 25.5372C136.246 24.7772 137.196 23.7272 137.876 22.3872C138.576 21.0272 138.926 19.4572 138.926 17.6772Z" fill="#12475E"/>
<path d="M166.185 28.4772C164.665 28.4972 163.345 28.2572 162.225 27.7572C161.105 27.2572 160.035 26.5072 159.015 25.5072C158.915 25.4272 158.825 25.3272 158.745 25.2072C158.685 25.0872 158.655 24.9472 158.655 24.7872C158.655 24.5472 158.745 24.3272 158.925 24.1272C159.125 23.9272 159.345 23.8272 159.585 23.8272C159.825 23.8272 160.045 23.9272 160.245 24.1272C161.025 24.9672 161.905 25.6072 162.885 26.0472C163.885 26.4872 164.955 26.7072 166.095 26.7072C167.055 26.7072 167.905 26.5572 168.645 26.2572C169.405 25.9572 170.005 25.5272 170.445 24.9672C170.885 24.4072 171.105 23.7572 171.105 23.0172C171.105 22.0972 170.855 21.3572 170.355 20.7972C169.855 20.2172 169.195 19.7472 168.375 19.3872C167.555 19.0072 166.645 18.6672 165.645 18.3672C164.825 18.1272 164.045 17.8572 163.305 17.5572C162.565 17.2372 161.905 16.8572 161.325 16.4172C160.745 15.9572 160.295 15.3972 159.975 14.7372C159.655 14.0772 159.495 13.2772 159.495 12.3372C159.495 11.2772 159.775 10.3372 160.335 9.5172C160.895 8.6972 161.685 8.0572 162.705 7.5972C163.745 7.1172 164.945 6.8772 166.305 6.8772C167.485 6.8772 168.615 7.0772 169.695 7.4772C170.795 7.8772 171.665 8.4672 172.305 9.2472C172.605 9.5672 172.755 9.8572 172.755 10.1172C172.755 10.3172 172.655 10.5172 172.455 10.7172C172.255 10.9172 172.035 11.0172 171.795 11.0172C171.595 11.0172 171.425 10.9472 171.285 10.8072C170.945 10.3872 170.515 10.0172 169.995 9.6972C169.475 9.3572 168.895 9.0972 168.255 8.9172C167.635 8.7372 166.985 8.6472 166.305 8.6472C165.365 8.6472 164.515 8.7972 163.755 9.0972C163.015 9.3772 162.425 9.7872 161.985 10.3272C161.565 10.8672 161.355 11.5172 161.355 12.2772C161.355 13.1172 161.595 13.8072 162.075 14.3472C162.555 14.8872 163.185 15.3372 163.965 15.6972C164.745 16.0372 165.575 16.3572 166.455 16.6572C167.315 16.8972 168.135 17.1772 168.915 17.4972C169.715 17.7972 170.415 18.1772 171.015 18.6372C171.635 19.0972 172.115 19.6772 172.455 20.3772C172.815 21.0772 172.995 21.9572 172.995 23.0172C172.995 24.0372 172.705 24.9572 172.125 25.7772C171.545 26.5972 170.745 27.2472 169.725 27.7272C168.725 28.2072 167.545 28.4572 166.185 28.4772Z" fill="#12475E"/>
</svg>
